<?xml version="1.0" encoding="utf-8"?>
<!-- Generator: Adobe Illustrator 24.1.1, SVG Export Plug-In . SVG Version: 6.00 Build 0)  -->
<svg version="1.1" id="Layer_1" xmlns="http://www.w3.org/2000/svg" xmlns:xlink="http://www.w3.org/1999/xlink" x="0px" y="0px"
	 viewBox="0 0 1200 1200" style="enable-background:new 0 0 1200 1200;" xml:space="preserve">
<style type="text/css">
	.st0{fill:#1F263F;}
	.st1{fill:#FFFFFF;}
</style>
<rect class="st0" width="1200" height="1200"/>
<g id="Layer_2_3_">
</g>
<path class="st0" d="M466.26,512.37"/>
<path class="st0" d="M456.87,513.49"/>
<path class="st0" d="M427.18,512.06"/>
<path class="st0" d="M463.36,493.54c1.1,1.65,2.23,3.27,3.38,4.89L463.36,493.54z"/>
<path class="st0" d="M456.49,512.98c0.04,0.06,0.08,0.11,0.12,0.16c-0.07-0.1-0.14-0.2-0.22-0.3L456.49,512.98z"/>
<path class="st1" d="M1093.19,563.38c-22.34-87.62-68.36-167.69-133.08-231.53c-64.65-63.77-145.32-108.77-233.29-130.12
	c-80.66-19.59-161.2-20.56-239.38-2.89c-73.07,16.51-143,49.86-202.24,96.44c-59.49,46.77-108.68,107.17-142.28,174.67
	C107.67,540.77,89.8,616.99,89.8,696.5c0,56.14,9.11,111.34,27.07,164.06c17.36,50.96,42.66,98.73,75.21,141.98l0.47,0.64
	c0.29,0.4,0.59,0.77,0.83,1.05c4.91,6.04,12.14,9.5,19.86,9.5c5.22,0,10.24-1.57,14.52-4.53c7.97-5.5,12.11-14.89,10.8-24.5
	c-0.55-4.02-1.98-7.75-4.28-11.08l-8.29-12c-2.4-3.39-5.22-7.4-7.89-11.42c-50.2-75.31-76.73-163.03-76.73-253.67
	c0-122.97,48.21-238.53,135.74-325.4c87.52-86.85,203.45-134.2,326.46-133.21c122.52,0.94,237.53,50.05,323.84,138.29
	c86.37,88.3,132.96,204.46,131.18,327.09c-1.36,93.35-30.69,182.76-84.85,258.76l-114.23-0.09V682.47h36.85
	c3.41,0,6.74-0.67,9.91-1.99c10.45-4.36,17.58-13.95,19.05-25.66c0.19-1.51,0.29-3.07,0.29-4.64c0-13.35-6.79-27.44-16.95-35.12
	L596.98,385.43l-0.37-0.27c-19.96-14.16-39.91,1.38-46.55,6.54c-0.53,0.43-1.04,0.82-1.53,1.17l-33.47,26.88
	c-0.17-8.05-1.58-18.14-9.84-26.53c-4.41-4.48-12.32-9.83-24.93-9.83h-93.58c-21.8,0-39.54,17.74-39.54,39.54v114.93l-101.12,75.15
	l-0.34,0.25l-1.33,1.33c-6.32,6.32-9.8,16.49-9.8,28.63c0,7.11,1.25,14.41,3.35,19.53c4.64,11.22,14.65,18.19,26.14,18.19h38.34
	v297.1c0,19.53,15.89,35.42,35.42,35.42h326.63c19.53,0,35.42-15.89,35.42-35.42V751.8c0-22.26-18.11-40.37-40.37-40.37H521.69
	c-22.24,0-40.33,18.09-40.33,40.33v172.56h51.54V762.97h115.46v198.96H354V661.15c0-17.5-14.24-31.74-31.74-31.74h-11.88
	l71.67-53.27c10.44-7.76,16.67-20.15,16.67-33.15V434.92h64.76v31.85c0,10.23,5.06,19.8,13.2,24.97
	c10.11,6.43,22.85,5.99,32.45-1.13l68.77-55.24l265.36,195.53h-4.63l-0.22,0.04c-9.12,0.36-16.56,3.44-22.13,9.15
	c-5.38,5.52-8.13,12.49-8.4,21.19c-0.07,1.27-0.07,2.66-0.02,4.34c0.04,0.83,0.08,1.82,0.08,2.99v304.57
	c0,22.21,18.07,40.29,40.29,40.29h69.2c0.12,0,12.68,0.02,27.09,0.06l41.89-0.06l0.54-0.03c8.78-0.82,16.83-5.35,22.09-12.41
	c45.02-60.31,75.51-128.05,90.63-201.35C1115.62,722.31,1113.44,642.81,1093.19,563.38z"/>
</svg>
